<svg xmlns="http://www.w3.org/2000/svg" fill="currentColor" viewBox="0 -960 960 960"><path d="M480-79.273q-12 0-23.455-3.272-11.454-3.273-21.272-8.728-44.728-27.272-93.818-41.454Q292.364-146.91 240-146.91q-45.818 0-90 12t-84.545 33.818q-22.91 12-44.182-1.09Q0-115.274 0-140.365v-525.818q0-12 6-22.909Q12-700 24-705.455q50.182-26.181 104.727-39.272Q183.273-757.818 240-757.818q63.273 0 123.818 16.363Q424.364-725.09 480-692.364v528q55.636-34.909 116.727-52.363Q657.818-234.182 720-234.182q39.273 0 76.91 6.546 37.635 6.545 75.817 19.636v-523.636q16.364 5.454 32.182 11.454 15.818 6 31.091 14.727 12 5.455 18 16.364 6 10.91 6 22.91v525.817q0 25.091-21.273 38.182-21.272 13.091-44.182 1.091-40.363-21.818-84.545-33.818-44.182-12-90-12-52.364 0-101.455 14.182-49.09 14.182-93.818 41.454-9.818 5.455-21.272 8.728Q492-79.273 480-79.273Zm123.273-231.272q-10.91 9.818-23.455 3.818-12.545-6-12.545-20.182v-356.727q0-4.364 1.636-8.182 1.636-3.818 4.91-7.091l174.545-174.546q10.909-10.909 24-5.454 13.09 5.454 13.09 20.727V-484q0 5.455-2.181 9.273-2.182 3.818-5.455 7.09z" style="stroke-width:1.09091"/></svg>