<svg xmlns="http://www.w3.org/2000/svg" fill="currentColor" viewBox="0 -960 960 960"><path d="M192-158.542 81.6-48.142q-22.8 22.8-52.2 10.2-29.4-12.6-29.4-45v-747.6q0-39.6 28.2-67.8 28.2-28.2 67.8-28.2h768q39.6 0 67.8 28.2 28.2 28.2 28.2 67.8v576q0 39.6-28.2 67.8-28.2 28.2-67.8 28.2zm48-192h288q20.4 0 34.2-13.8 13.8-13.8 13.8-34.2 0-20.4-13.8-34.2-13.8-13.8-34.2-13.8H240q-20.4 0-34.2 13.8-13.8 13.8-13.8 34.2 0 20.4 13.8 34.2 13.8 13.8 34.2 13.8zm0-144h480q20.4 0 34.2-13.8 13.8-13.8 13.8-34.2 0-20.4-13.8-34.2-13.8-13.8-34.2-13.8H240q-20.4 0-34.2 13.8-13.8 13.8-13.8 34.2 0 20.4 13.8 34.2 13.8 13.8 34.2 13.8zm0-144h480q20.4 0 34.2-13.8 13.8-13.8 13.8-34.2 0-20.4-13.8-34.2-13.8-13.8-34.2-13.8H240q-20.4 0-34.2 13.8-13.8 13.8-13.8 34.2 0 20.4 13.8 34.2 13.8 13.8 34.2 13.8z" style="stroke-width:1.2"/></svg>