<svg xmlns="http://www.w3.org/2000/svg" fill="currentColor" viewBox="0 0 32 32"><path d="M2.667 28.8q-1.08 0-1.874-.793Q0 27.213 0 26.133V5.867q0-1.08.793-1.874.794-.793 1.874-.793h26.666q1.08 0 1.874.793.793.794.793 1.874v20.266q0 1.08-.793 1.874-.794.793-1.874.793zM16 16.76q.2 0 .367-.06.166-.06.34-.153L28.853 8.72q.24-.147.36-.38t.12-.513q0-.614-.533-.947-.533-.333-1.093.027L16 14.347 4.32 6.907q-.56-.36-1.107-.034-.546.327-.546.927 0 .293.133.54.133.247.347.38l12.146 7.827q.174.093.34.153.167.06.367.06z" data-astro-source-file="/var/home/desktop/Projects/melontini.me/src/pages/contact.astro" data-astro-source-loc="104:15" style="stroke-width:.0399999"/></svg>