<svg xmlns="http://www.w3.org/2000/svg" fill="currentColor" viewBox="0 -960 960 960"><path d="M53.333-160q-22.666 0-38-15.333Q0-190.667 0-213.333q0-22.667 15.333-38 15.334-15.334 38-15.334h853.334q22.666 0 38 15.334Q960-236 960-213.333q0 22.666-15.333 38-15.334 15.333-38 15.333zm0-266.667q-22.666 0-38-15.333Q0-457.333 0-480t15.333-38q15.334-15.333 38-15.333h853.334q22.666 0 38 15.333Q960-502.667 960-480t-15.333 38q-15.334 15.333-38 15.333zm0-266.666q-22.666 0-38-15.334Q0-724 0-746.667q0-22.666 15.333-38Q30.667-800 53.333-800h853.334q22.666 0 38 15.333 15.333 15.334 15.333 38 0 22.667-15.333 38-15.334 15.334-38 15.334z" style="stroke-width:1.33333"/></svg>