<svg xmlns="http://www.w3.org/2000/svg" fill="currentColor" viewBox="0 -960 960 960"><path d="M41.143-109.714V-603.43q0-26.057 11.657-49.371 11.657-23.314 32.229-38.4L414.17-938.057Q442.971-960 480-960q37.029 0 65.829 21.943L874.97-691.2q20.572 15.086 32.229 38.4t11.657 49.371v493.715q0 45.257-32.228 77.485Q854.4 0 809.143 0H644.57q-23.314 0-39.085-15.771-15.772-15.772-15.772-39.086v-274.286q0-23.314-15.771-39.086Q558.17-384 534.857-384H425.143q-23.314 0-39.086 15.771-15.771 15.772-15.771 39.086v274.286q0 23.314-15.772 39.086Q338.743 0 315.43 0H150.857Q105.6 0 73.371-32.229q-32.228-32.228-32.228-77.485Z" style="stroke-width:1.37143"/></svg>