<svg xmlns="http://www.w3.org/2000/svg" fill="currentColor" viewBox="0 0 32 32"><path d="M10.234 10.412v1.545h.043c.412-.59.91-1.046 1.49-1.366.578-.326 1.248-.486 2-.486.72 0 1.378.141 1.975.418.596.277 1.046.775 1.36 1.477.338-.498.8-.942 1.378-1.323.578-.382 1.268-.572 2.062-.572.603 0 1.163.073 1.68.221.516.148.953.382 1.323.708.369.326.652.744.861 1.268.203.523.308 1.15.308 1.889v7.637h-3.132V15.36c0-.382-.013-.745-.044-1.083a2.341 2.341 0 0 0-.24-.88 1.474 1.474 0 0 0-.584-.597c-.259-.148-.61-.222-1.046-.222-.443 0-.8.087-1.071.253a1.84 1.84 0 0 0-.64.664c-.154.271-.259.579-.308.93-.049.344-.08.695-.08 1.046v6.357h-3.132v-6.4c0-.339-.006-.671-.025-1.003a2.767 2.767 0 0 0-.19-.917 1.402 1.402 0 0 0-.554-.671c-.259-.166-.634-.252-1.139-.252-.147 0-.344.03-.584.098s-.48.19-.708.375c-.228.185-.425.45-.585.794-.16.345-.24.8-.24 1.36v6.622H7.28V10.412Z" style="stroke-width:.0615385"/><path d="M8.26 1.796H1.795v28.408H8.26M23.74 1.796h6.464v28.408H23.74" style="font-variation-settings:&quot;MONO&quot;0,&quot;wght&quot;800;fill:none;stroke:currentColor;stroke-width:3.5929;stroke-linecap:round;stroke-linejoin:round;stroke-dasharray:none"/></svg>