<svg xmlns="http://www.w3.org/2000/svg" aria-hidden="true" viewBox="0 -960 960 960"><path fill="currentColor" d="M113.405 0q-46.78 0-80.092-33.313Q0-66.626 0-113.405q0-46.78 33.313-80.093t80.092-33.313q46.78 0 80.093 33.313t33.313 80.093q0 46.78-33.313 80.092Q160.185 0 113.405 0Zm765.487 0q-36.857 0-61.664-26.934-24.808-26.934-29.06-63.79-15.593-137.504-74.423-257.289-58.829-119.784-152.388-213.344-93.56-93.56-213.344-152.388-119.785-58.83-257.289-74.423-36.856-4.252-63.79-29.06Q0-842.035 0-878.892t25.516-60.247q25.516-23.39 60.956-20.554 174.36 15.593 326.75 88.598Q565.61-798.091 681.85-681.85q116.24 116.24 189.245 268.629 73.005 152.389 88.598 326.75 2.836 35.439-20.554 60.955Q915.749 0 878.892 0ZM538.676 0q-35.44 0-60.956-24.807-25.516-24.808-32.604-60.247-12.758-69.46-44.653-128.29-31.895-58.829-80.093-107.026-48.197-48.198-107.026-80.093-58.83-31.895-128.29-44.653-35.44-7.088-60.247-32.604Q0-503.237 0-538.676q0-36.857 25.516-60.955 25.516-24.099 60.956-18.429 103.482 14.176 193.498 60.247 90.015 46.071 160.894 116.95 70.878 70.878 116.949 160.893 46.07 90.016 60.247 193.498 5.67 35.44-18.429 60.956Q575.533 0 538.676 0Z" style="stroke-width:1.41757"/></svg>